<svg id="SvgjsSvg1023" width="288" height="288" xmlns="http://www.w3.org/2000/svg" version="1.1" xmlns:xlink="http://www.w3.org/1999/xlink" xmlns:svgjs="http://svgjs.com/svgjs"><defs id="SvgjsDefs1024"></defs><g id="SvgjsG1025"><svg xmlns="http://www.w3.org/2000/svg" enable-background="new 0 0 512 512" version="1.0" viewBox="0 0 512 512" width="288" height="288"><path fill="#ffffff" fill-rule="evenodd" d="M375.356,331.132c-15.628,0-28.298,12.67-28.298,28.298c0,15.628,12.669,28.298,28.298,28.298
			c15.628,0,28.298-12.67,28.298-28.298C403.655,343.801,390.985,331.132,375.356,331.132L375.356,331.132z M307.789,398.721
			c5.391,5.037,11.739,7.542,19.117,7.542c18.248,0,53.417,0,72.084,0c8.183,0,15.226,2.998,20.899,8.895l16.246,16.888
			c1.956,2.034,4.385,3.067,7.207,3.067h40.425c16.31,0,16.31,24.657,0,24.657h-48.366c-4.515,0-7.947-2.161-11.531-4.908
			l-14.358-11.005L406.482,496h-62.25l-3.518-59.033l-27.868-6.047c-4.378-0.95-8.334-1.521-11.607-4.579l-51.912-48.51
			c-11.454-10.703,4.124-29.888,16.514-18.31L307.789,398.721z" clip-rule="evenodd" class="svgShape colorf1f1f1-0 selectable"></path><path fill-rule="evenodd" d="M375.356,338.632c-18.474,0-27.773,22.438-14.707,35.505c13.067,13.067,35.505,3.766,35.505-14.707
			C396.155,347.942,386.844,338.632,375.356,338.632L375.356,338.632z M350.044,334.117c13.98-13.98,36.644-13.98,50.625,0
			c13.981,13.98,13.98,36.644,0,50.625c-13.98,13.98-36.645,13.981-50.625,0C336.064,370.761,336.064,348.099,350.044,334.117
			L350.044,334.117z M302.692,404.2c6.761,6.318,14.967,9.534,24.214,9.534l72.084,0c6.118,0,11.259,2.192,15.508,6.61
			l16.246,16.888c3.363,3.495,7.774,5.382,12.597,5.382h40.425c2.32,0,3.751,1.127,4.33,2.569c1.077,2.68,0.291,7.088-4.33,7.088
			h-48.366c-1.061,0-2.013-0.262-2.921-0.691c-2.738-1.293-15.342-11.306-18.427-13.669c-4.689-3.59-11.668-0.535-12.012,5.537
			l-2.618,45.052h-48.141l-3.074-51.583c-0.02-3.435-2.415-6.518-5.912-7.274l-27.868-6.047c-2.775-0.602-6.348-1.104-8.091-2.733
			l-51.912-48.51c-1.679-1.569-1.891-3.587-1.243-5.266c1.075-2.786,4.145-5.279,7.562-2.087L302.692,404.2L302.692,404.2z
			 M270.938,354.043l41.949,39.2c4.019,3.755,8.515,5.55,14.019,5.55l72.084,0c10.248,0,19.193,3.804,26.29,11.18l16.246,16.888
			c0.554,0.575,1.002,0.753,1.816,0.753h40.425c15.844,0,23.116,15.465,18.217,27.654c-2.708,6.738-8.794,12.003-18.217,12.003
			h-48.366c-8.168,0-13.309-4.343-19.239-8.888l-2.182,37.541c-0.094,4.376-3.367,7.576-7.499,7.576h-62.25
			c-3.963,0.003-7.238-3.11-7.471-7.06l-3.18-53.352l-23.55-5.117c-4.948-1.041-9.432-1.984-13.891-6.15l-51.912-48.51
			c-11.488-10.736-6.215-27.634,5.652-33.148C256.27,347.193,264.021,347.579,270.938,354.043z" clip-rule="evenodd" fill="#1e1e1e" class="svgShape color000000-1 selectable"></path><path fill="#f1f1f1" fill-rule="evenodd" d="M136.644,331.132c15.628,0,28.298,12.67,28.298,28.298c0,15.628-12.669,28.298-28.298,28.298
			c-15.628,0-28.298-12.67-28.298-28.298C108.345,343.801,121.015,331.132,136.644,331.132L136.644,331.132z M204.211,398.721
			c-5.391,5.037-11.738,7.542-19.117,7.542c-18.248,0-53.417,0-72.084,0c-8.183,0-15.226,2.998-20.899,8.895l-16.246,16.888
			c-1.956,2.034-4.385,3.067-7.207,3.067H28.233c-16.31,0-16.31,24.657,0,24.657h48.366c4.515,0,7.948-2.161,11.531-4.908
			l14.358-11.005l3.03,52.142h62.25l3.518-59.033l27.868-6.047c4.378-0.95,8.334-1.521,11.607-4.579l51.912-48.51
			c11.454-10.703-4.124-29.888-16.514-18.31L204.211,398.721z" clip-rule="evenodd" class="svgShape colorf1f1f1-2 selectable"></path><path fill-rule="evenodd" d="M136.644,323.632c19.769,0,35.798,16.029,35.798,35.798s-16.029,35.798-35.798,35.798
			c-19.769,0-35.798-16.029-35.798-35.798C100.845,339.66,116.875,323.632,136.644,323.632L136.644,323.632z M151.35,344.723
			c-13.068-13.067-35.505-3.766-35.505,14.707c0,18.473,22.438,27.774,35.505,14.707
			C159.472,366.015,159.472,352.845,151.35,344.723L151.35,344.723z M199.113,393.243c-4.019,3.756-8.515,5.55-14.019,5.55
			l-72.084,0c-10.248,0-19.193,3.804-26.29,11.18l-16.246,16.888c-0.553,0.575-1.002,0.753-1.816,0.753H28.233
			c-9.423,0-15.508,5.265-18.217,12.003c-4.899,12.191,2.373,27.654,18.217,27.654h48.366c8.168,0,13.309-4.343,19.239-8.888
			l2.182,37.541c0.103,4.384,3.368,7.577,7.499,7.576l62.25-0.016c3.935,0.003,7.237-3.065,7.471-7.044l3.179-53.352l22.319-4.843
			c5.266-1.142,10.271-1.891,15.122-6.425l51.912-48.51c6.838-6.39,7.669-14.679,4.993-21.614
			c-4.71-12.205-19.932-18.652-31.702-7.653L199.113,393.243L199.113,393.243z M251.257,365l-41.949,39.2
			c-6.758,6.315-14.968,9.534-24.214,9.534l-72.084,0c-6.118,0-11.259,2.192-15.508,6.61l-16.246,16.888
			c-3.363,3.496-7.775,5.382-12.597,5.382H28.233c-4.621,0-5.406,4.409-4.33,7.088c0.579,1.442,2.01,2.569,4.33,2.569h48.366
			c2.555,0,4.827-1.697,6.99-3.355l14.358-11.005c4.688-3.59,11.668-0.536,12.011,5.537l2.618,45.052h48.141l3.074-51.583
			c0.02-3.435,2.415-6.518,5.912-7.274l29.218-6.322c2.783-0.585,5.305-1.116,6.742-2.459l51.912-48.51
			c3.193-2.984,0.961-7.349-1.726-8.597C254.617,363.183,252.967,363.402,251.257,365z" clip-rule="evenodd" fill="#000000" class="svgShape color000000-3 selectable"></path><g><path fill="#ebedef" fill-rule="evenodd" d="M244.891,16h22.218c8.373,0,15.321,6.271,16.176,14.6l2.882,28.069c10.137,2.498,19.756,6.232,28.681,11.015
			l21.181-17.237c6.494-5.285,15.842-4.806,21.763,1.115l15.711,15.711c5.921,5.921,6.399,15.268,1.114,21.762l-15.631,19.209
			c6.133,9.544,10.866,20.003,13.924,31.117l23.555,2.419c8.329,0.855,14.6,7.803,14.6,16.177v22.218
			c0,8.373-6.271,15.321-14.6,16.176l-23.555,2.418c-3.06,11.114-7.79,21.575-13.924,31.118l15.631,19.208
			c5.285,6.494,4.806,15.842-1.115,21.763l-15.711,15.711c-5.921,5.92-15.268,6.399-21.762,1.114l-21.18-17.236
			c-8.927,4.782-18.545,8.517-28.682,11.015l-2.882,28.069c-0.855,8.329-7.803,14.6-16.177,14.6h-22.218
			c-8.373,0-15.321-6.271-16.176-14.6l-2.882-28.069c-10.136-2.5-19.756-6.233-28.682-11.015l-21.181,17.236
			c-6.494,5.285-15.842,4.806-21.763-1.114l-15.711-15.711c-5.92-5.92-6.399-15.268-1.114-21.762l15.631-19.208
			c-6.133-9.544-10.867-20.004-13.925-31.117l-23.554-2.419c-8.329-0.855-14.6-7.803-14.6-16.177v-22.218
			c0-8.373,6.271-15.321,14.6-16.176l23.554-2.419c3.06-11.113,7.79-21.574,13.924-31.118l-15.631-19.208
			c-5.285-6.494-4.806-15.842,1.115-21.763l15.711-15.711c5.92-5.921,15.268-6.399,21.762-1.114l21.181,17.237
			c8.926-4.782,18.545-8.517,28.682-11.015l2.882-28.069C229.569,22.271,236.518,16,244.891,16z" clip-rule="evenodd" class="svgShape color85b9e4-5 selectable"></path><ellipse cx="256" cy="171.066" fill="#f1f1f1" fill-rule="evenodd" clip-rule="evenodd" rx="88.179" ry="84.621" class="svgShape colorf1f1f1-6 selectable"></ellipse><path fill-rule="evenodd" d="M256,78.945c51.902,0,95.679,40.413,95.679,92.121c0,51.708-43.777,92.121-95.679,92.121
			c-51.901,0-95.679-40.413-95.679-92.121C160.321,119.358,204.098,78.945,256,78.945L256,78.945z M244.891,8.5
			c-12.201,0-22.369,9.178-23.617,21.339l-2.356,22.944c-7.11,2.072-14.177,4.798-20.822,8.031l-17.408-14.167
			c-9.463-7.701-23.165-7.005-31.782,1.612L133.194,63.97c-8.618,8.618-9.314,22.319-1.613,31.782l12.29,15.102
			c-4.317,7.437-7.852,15.336-10.505,23.576l-18.593,1.909c-12.161,1.248-21.339,11.416-21.339,23.618v22.218
			c0,12.201,9.178,22.369,21.339,23.618l18.592,1.909c2.654,8.24,6.189,16.138,10.506,23.575l-12.29,15.102
			c-7.701,9.463-7.006,23.164,1.612,31.782l15.711,15.711c8.618,8.618,22.319,9.314,31.782,1.612l17.409-14.167
			c6.646,3.234,13.711,5.957,20.822,8.03l2.356,22.944c1.248,12.16,11.415,21.339,23.617,21.339h22.218
			c12.202,0,22.37-9.178,23.618-21.339l2.356-22.944c7.11-2.072,14.177-4.798,20.822-8.032l17.409,14.167
			c9.463,7.701,23.164,7.005,31.782-1.612l15.711-15.711c8.618-8.618,9.314-22.319,1.613-31.782l-12.29-15.102
			c4.318-7.439,7.85-15.334,10.505-23.576l18.593-1.909c12.166-1.249,21.339-11.381,21.339-23.617v-22.218
			c0-12.202-9.178-22.37-21.339-23.618l-18.592-1.909c-2.654-8.239-6.189-16.138-10.506-23.575l12.29-15.102
			c7.701-9.463,7.006-23.164-1.612-31.782l-15.711-15.711c-8.618-8.618-22.319-9.314-31.782-1.613l-17.409,14.167
			c-6.646-3.234-13.711-5.959-20.822-8.031l-2.355-22.944C289.478,17.678,279.31,8.5,267.109,8.5H244.891L244.891,8.5z
			 M267.109,23.5h-22.218c-4.544,0-8.273,3.364-8.735,7.862l-2.86,27.851c-0.229,3.147-2.447,5.928-5.677,6.722
			c-8.542,2.103-19.108,5.939-26.652,10.181c-2.618,1.553-6.034,1.403-8.534-0.63l-21.18-17.237
			c-3.51-2.856-8.509-2.617-11.743,0.616l-15.711,15.711c-3.234,3.233-3.473,8.233-0.617,11.743l15.391,18.913
			c2.206,2.445,2.603,6.151,0.739,9.056c-5.158,8.032-10.635,19.479-12.912,28.661c-0.667,3.078-3.247,5.516-6.549,5.854
			l-23.555,2.419c-4.499,0.462-7.862,4.191-7.862,8.735v22.218c0,4.544,3.364,8.273,7.862,8.735l23.555,2.419
			c3.073,0.315,5.634,2.499,6.445,5.478c2.81,10.263,7.267,20.089,13.017,29.037c1.698,2.645,1.593,6.189-0.498,8.76l-15.631,19.208
			c-2.856,3.51-2.618,8.509,0.616,11.743l15.711,15.711c3.233,3.233,8.233,3.473,11.743,0.616l21.181-17.236
			c2.263-1.839,5.498-2.249,8.232-0.791c8.614,4.604,17.367,7.98,26.953,10.341c2.983,0.734,5.324,3.273,5.654,6.504l2.882,28.069
			c0.462,4.498,4.191,7.862,8.735,7.862h22.218c4.544,0,8.274-3.364,8.736-7.862l2.859-27.851c0.229-3.147,2.447-5.927,5.677-6.722
			c8.54-2.102,19.109-5.939,26.652-10.18c2.618-1.554,6.034-1.403,8.534,0.63l21.18,17.236c3.51,2.857,8.509,2.617,11.743-0.616
			l15.711-15.711c3.234-3.234,3.473-8.233,0.617-11.743l-15.391-18.913c-2.206-2.444-2.603-6.151-0.738-9.056
			c5.158-8.03,10.636-19.48,12.911-28.661c0.667-3.078,3.247-5.517,6.55-5.855l23.555-2.418c4.492-0.461,7.862-4.226,7.862-8.735
			v-22.218c0-4.544-3.364-8.274-7.862-8.736l-23.555-2.419c-3.073-0.316-5.634-2.499-6.445-5.478
			c-2.803-10.24-7.26-20.079-13.016-29.037c-1.738-2.706-1.53-6.267,0.498-8.76l15.631-19.208c2.856-3.51,2.618-8.509-0.616-11.743
			L352.49,58.865c-3.234-3.234-8.233-3.473-11.743-0.617l-21.181,17.237c-2.334,1.896-5.579,2.206-8.232,0.791
			c-8.617-4.607-17.363-7.98-26.953-10.341c-2.983-0.734-5.324-3.273-5.654-6.504l-2.882-28.069
			C275.382,26.864,271.652,23.5,267.109,23.5L267.109,23.5z M313.166,116.62c-31.51-30.238-82.823-30.239-114.333,0
			c-31.35,30.085-31.35,78.806,0,108.891c31.51,30.239,82.822,30.238,114.333,0C344.516,195.427,344.516,146.705,313.166,116.62z" clip-rule="evenodd" fill="#000000" class="svgShape color000000-7 selectable"></path><path fill="#85b9e4" fill-rule="evenodd" d="M232.15,229.043v-55.3c0-2.203-1.797-4-4-4h-11.827c-3.303,0-5.182-3.769-3.194-6.407l39.677-52.654
			c1.608-2.133,4.781-2.134,6.389,0l39.677,52.654c1.988,2.638,0.109,6.407-3.194,6.407H283.85c-2.203,0-4,1.797-4,4v55.3
			c0,2.203-1.797,4-4,4H236.15C233.947,233.043,232.15,231.246,232.15,229.043z" clip-rule="evenodd" class="svgShape color85b9e4-8 selectable"></path><path fill-rule="evenodd" d="M224.65,229.043v-51.8h-8.327c-9.402,0-14.899-10.816-9.171-18.419l39.677-52.654
			c4.607-6.113,13.735-6.115,18.342,0l39.677,52.654c5.729,7.602,0.231,18.419-9.171,18.419h-8.327v51.8
			c0,6.344-5.156,11.5-11.5,11.5H236.15C229.806,240.543,224.65,235.386,224.65,229.043L224.65,229.043z M239.65,173.742v51.8
			h32.701v-51.8c0-6.344,5.156-11.5,11.5-11.5h4.822L256,118.885l-32.672,43.358c5.029,0,9.041-0.539,12.951,3.371
			C238.359,167.694,239.65,170.57,239.65,173.742z" clip-rule="evenodd" fill="#000000" class="svgShape color000000-9 selectable"></path></g></svg></g></svg>